<svg width="130" height="24" viewBox="0 0 130 24" fill="none" xmlns="http://www.w3.org/2000/svg">
<path d="M0 19.6948V0H3.01906V18.8556C3.01906 20.3052 3.50955 20.7847 4.94824 20.7847H14.7357V23.5531H3.85832C1.70029 23.5531 0 21.6893 0 19.6948Z" fill="white"/>
<path fill-rule="evenodd" clip-rule="evenodd" d="M24.9045 8.35971H24.4576C22.4631 8.35971 21.3296 9.13355 20.9808 10.6812H18.0816C18.6593 7.36788 20.8173 5.72211 24.523 5.72211H25.1661C29.7655 5.72211 32.0543 7.65126 32.0543 11.5205V23.5531H29.1552V21.0463C28.2178 23.0082 26.5829 24 24.196 24H23.2369C19.2696 24 16.9917 22.169 16.9917 18.5286C16.9917 14.8011 19.3677 13.0028 24.196 13.0028H29.1552V11.5205C29.1552 9.39512 27.7383 8.35971 24.9045 8.35971ZM23.2369 21.4932H24.196C27.5094 21.4932 29.1552 19.6621 29.1552 15.9564V15.4442H24.196C21.2969 15.4442 19.8909 16.4687 19.8909 18.5286C19.8909 20.5341 21.2097 21.4932 23.2369 21.4932Z" fill="white"/>
<path d="M34.6265 18.7248H37.5257C37.5257 20.5014 38.7464 21.3624 41.1878 21.3624H42.6701C45.3404 21.3624 46.6592 20.5341 46.6592 18.8556C46.6592 17.0572 45.057 16.436 43.1169 16.1853L39.7055 15.7384C37.166 15.4115 34.9426 13.8311 34.9426 10.6158C34.9426 7.33518 37.2641 5.72211 41.8962 5.72211H42.354C46.7246 5.72211 48.9153 7.36788 48.9153 10.6812H46.0161C46.0161 9.13355 44.8281 8.35971 42.4194 8.35971H41.8308C38.9752 8.35971 37.8417 9.16624 37.8417 10.6158C37.8417 11.8692 38.9098 12.6758 40.3594 12.872L43.7709 13.3515C46.6919 13.7657 49.5583 15.3134 49.5583 18.921C49.5583 22.169 47.2368 24 42.5393 24H41.3186C36.8499 24 34.6265 22.267 34.6265 18.7248Z" fill="white"/>
<path d="M52.1309 3.05176e-05H55.03V13.7657L62.6595 6.17986H66.387L60.0545 12.7412L67.4551 23.5531H63.9455L57.9946 14.8338L55.03 17.8856V23.5531H52.1309V3.05176e-05Z" fill="white"/>
<path fill-rule="evenodd" clip-rule="evenodd" d="M75.3679 8.35971H74.921C72.9265 8.35971 71.7929 9.13355 71.4442 10.6812H68.545C69.1227 7.36788 71.2807 5.72211 74.9864 5.72211H75.6295C80.2289 5.72211 82.5177 7.65126 82.5177 11.5205V23.5531H79.6185V21.0463C78.6812 23.0082 77.0463 24 74.6594 24H73.7003C69.733 24 67.4551 22.169 67.4551 18.5286C67.4551 14.8011 69.8311 13.0028 74.6594 13.0028H79.6185V11.5205C79.6185 9.39512 78.2016 8.35971 75.3679 8.35971ZM73.7003 21.4932H74.6594C77.9728 21.4932 79.6185 19.6621 79.6185 15.9564V15.4442H74.6594C71.7602 15.4442 70.3542 16.4687 70.3542 18.5286C70.3542 20.5341 71.673 21.4932 73.7003 21.4932Z" fill="white"/>
<path d="M85.7329 6.17987H88.6321V9.29704C89.6566 6.91012 91.6512 5.72211 94.6484 5.72211H95.0626V8.93736H93.6784C90.5285 8.93736 88.8828 10.3543 88.6321 13.2534V23.5531H85.7329V6.17987Z" fill="white"/>
<path fill-rule="evenodd" clip-rule="evenodd" d="M112.665 3.05176e-05H113.733C115.182 3.05176e-05 116.141 0.67578 116.665 2.02728L124.937 23.5531H121.711L119.368 17.4714H107.041L104.719 23.5531H101.504L109.711 2.02728C110.223 0.67578 111.193 3.05176e-05 112.665 3.05176e-05ZM118.332 14.7684L114.016 3.59676C113.831 3.0518 113.537 2.76842 113.188 2.76842C112.828 2.76842 112.545 3.0518 112.349 3.59676L108.065 14.7684H118.332Z" fill="#E51E25"/>
<path d="M126.539 1.12262H129.438V3.37875H126.539V1.12262ZM126.539 6.16893H129.438V23.5531H126.539V6.16893Z" fill="#E51E25"/>
</svg>
